<svg xmlns="http://www.w3.org/2000/svg" height="40px" viewBox="0 -960 960 960" width="40px" fill="#000000"><path d="M739.49-102.69q-5.29-2.11-10.23-7.05L509.15-329.72q-4.95-4.95-7.18-10.23-2.23-5.28-2.23-11.56 0-6.29 2.23-11.57t7.18-10.23l75.77-75.77q4.95-4.95 10.23-7.18 5.28-2.23 11.57-2.23 6.28 0 11.56 2.23t10.49 7.18l220.1 220.11q4.95 4.94 7.05 10.23 2.1 5.28 2.1 11.69 0 6.41-2.1 11.69-2.1 5.28-7.05 10.23l-75.77 75.39q-4.95 4.94-10.23 7.05-5.28 2.1-11.69 2.1-6.41 0-11.69-2.1Zm11.69-55.13 49.23-49.23-193.62-193.62-49.23 49.23 193.62 193.62Zm-555.36 55.23q-5.59-2.21-10.54-7.15l-75.15-74.77q-4.95-4.95-7.15-10.54-2.21-5.59-2.21-12t2.21-11.89q2.2-5.47 7.15-10.42l215.28-215.28h84.23L444-479 271.82-651.18h-57l-112.9-112.9 92.39-92.38 112.89 112.9v57l172.18 172.18 125.08-125.08-70.03-70.03 50.62-50.61H483.2l-17.35-16.98 121-121 16.97 16.98v102.23l50.61-50.62 163.59 162.82q14.77 14.39 22.61 33.34 7.83 18.95 7.83 39.95 0 17.23-5.54 33.62-5.54 16.4-15.74 30.02l-83.46-83.47-56.39 56.39-47.25-47.26-195.44 195.44v84.38l-214.9 214.52q-4.94 4.94-10.23 7.15-5.28 2.2-11.69 2.2-6.41 0-12-2.2Zm12-55.61L405.9-356.28v-49.23h-49.23L158.59-207.44l49.23 49.24Zm0 0-49.23-49.24 24.92 24.31 24.31 24.93Zm543.36.38 49.23-49.23-49.23 49.23Z"/></svg>
